<svg xmlns="http://www.w3.org/2000/svg" width="640" height="360" viewBox="0 0 640 360" role="img" aria-label="">
  <defs>
    <linearGradient id="pl-g" x1="0%" y1="50%" x2="100%" y2="50%">
      <stop offset="0%" style="stop-color:#0f172a"/>
      <stop offset="100%" style="stop-color:#1e1b4b"/>
    </linearGradient>
  </defs>
  <rect width="640" height="360" fill="url(#pl-g)"/>
  <rect x="50" y="150" width="100" height="60" rx="10" fill="#0f1419" stroke="#6ee7b7" stroke-width="2" stroke-opacity="0.4"/>
  <rect x="190" y="150" width="100" height="60" rx="10" fill="#0f1419" stroke="#38bdf8" stroke-width="2" stroke-opacity="0.35"/>
  <rect x="330" y="150" width="100" height="60" rx="10" fill="#0f1419" stroke="#6ee7b7" stroke-width="2" stroke-opacity="0.3"/>
  <rect x="470" y="150" width="100" height="60" rx="10" fill="#0f1419" stroke="#e8edf3" stroke-width="2" stroke-opacity="0.2"/>
  <path d="M 150 180 L 190 180" stroke="#64748b" stroke-width="4" stroke-linecap="round" opacity="0.6"/>
  <path d="M 290 180 L 330 180" stroke="#64748b" stroke-width="4" stroke-linecap="round" opacity="0.6"/>
  <path d="M 430 180 L 470 180" stroke="#64748b" stroke-width="4" stroke-linecap="round" opacity="0.6"/>
  <rect x="78" y="170" width="44" height="6" rx="3" fill="#6ee7b7" opacity="0.4"/>
  <rect x="218" y="170" width="44" height="6" rx="3" fill="#38bdf8" opacity="0.35"/>
  <rect x="74" y="60" width="492" height="50" rx="10" fill="#0f1419" opacity="0.35"/>
  <rect x="90" y="78" width="200" height="8" rx="4" fill="#e8edf3" opacity="0.12"/>
  <rect x="90" y="92" width="120" height="4" rx="2" fill="#e8edf3" opacity="0.08"/>
</svg>
